<svg width="900" height="200" viewBox="0 0 900 200" fill="none" xmlns="http://www.w3.org/2000/svg">
<rect width="900" height="200" fill="#F5F5F5"/>
<path d="M281.989 139.277C311.096 109.173 315.111 82.7053 314.107 68.8457C313.104 54.9861 297.045 49.9688 287.008 55.9895C276.971 62.0102 274.963 80.0726 290.019 87.0968C305.074 94.1209 332.339 101.07 348.51 114.972C359.274 124.225 356.71 137.736 348.51 144.294C339.2 151.741 322.718 147.756 319.126 135.263C315.376 122.218 328.159 110.74 340.204 108.733C352.248 106.726 387.377 91.9252 360.278 68.8457" stroke="#FF5722" stroke-width="8.2464" stroke-linecap="round"/>
<path d="M338.562 51.792C338.201 50.8529 339.005 49.8799 339.995 50.0575L365.622 54.6557C366.594 54.8302 367.018 55.9875 366.389 56.7491L350.11 76.4511C349.481 77.2126 348.264 77.0142 347.909 76.0922L338.562 51.792Z" fill="#FF5722" stroke="#FF5722" stroke-width="8.2464"/>
<circle cx="280.54" cy="137.48" r="13.6368" fill="#FF5722" stroke="#FF5722" stroke-width="8.2464"/>
<path d="M432.005 94.9656C431.78 92.6969 430.814 90.9344 429.108 89.6781C427.401 88.4219 425.086 87.7937 422.161 87.7937C420.173 87.7937 418.495 88.075 417.126 88.6375C415.758 89.1812 414.708 89.9406 413.976 90.9156C413.264 91.8906 412.908 92.9969 412.908 94.2344C412.87 95.2656 413.086 96.1656 413.555 96.9344C414.042 97.7031 414.708 98.3687 415.551 98.9312C416.395 99.475 417.37 99.9531 418.476 100.366C419.583 100.759 420.764 101.097 422.02 101.378L427.195 102.616C429.708 103.178 432.014 103.928 434.114 104.866C436.214 105.803 438.033 106.956 439.57 108.325C441.108 109.694 442.298 111.306 443.142 113.162C444.005 115.019 444.445 117.147 444.464 119.547C444.445 123.072 443.545 126.128 441.764 128.716C440.001 131.284 437.451 133.281 434.114 134.706C430.795 136.112 426.792 136.816 422.105 136.816C417.455 136.816 413.405 136.103 409.955 134.678C406.523 133.253 403.842 131.144 401.911 128.35C399.998 125.537 398.995 122.059 398.901 117.916H410.686C410.817 119.847 411.37 121.459 412.345 122.753C413.339 124.028 414.661 124.994 416.311 125.65C417.98 126.287 419.864 126.606 421.964 126.606C424.026 126.606 425.817 126.306 427.336 125.706C428.873 125.106 430.064 124.272 430.908 123.203C431.751 122.134 432.173 120.906 432.173 119.519C432.173 118.225 431.789 117.137 431.02 116.256C430.27 115.375 429.164 114.625 427.701 114.006C426.258 113.387 424.486 112.825 422.386 112.319L416.114 110.744C411.258 109.562 407.423 107.716 404.611 105.203C401.798 102.691 400.401 99.3062 400.42 95.05C400.401 91.5625 401.33 88.5156 403.205 85.9094C405.098 83.3031 407.695 81.2687 410.995 79.8062C414.295 78.3437 418.045 77.6125 422.245 77.6125C426.52 77.6125 430.251 78.3437 433.439 79.8062C436.645 81.2687 439.139 83.3031 440.92 85.9094C442.701 88.5156 443.62 91.5344 443.676 94.9656H432.005ZM464.412 111.025V136H452.43V78.4H464.074V100.422H464.58C465.555 97.8719 467.13 95.875 469.305 94.4312C471.48 92.9687 474.209 92.2375 477.49 92.2375C480.49 92.2375 483.105 92.8937 485.337 94.2062C487.587 95.5 489.33 97.3656 490.568 99.8031C491.824 102.222 492.443 105.119 492.424 108.494V136H480.443V110.631C480.462 107.969 479.787 105.897 478.418 104.416C477.068 102.934 475.174 102.194 472.737 102.194C471.105 102.194 469.662 102.541 468.405 103.234C467.168 103.928 466.193 104.941 465.48 106.272C464.787 107.584 464.43 109.169 464.412 111.025ZM501.853 136V92.8H513.834V136H501.853ZM507.872 87.2312C506.091 87.2312 504.562 86.6406 503.287 85.4594C502.031 84.2594 501.403 82.825 501.403 81.1562C501.403 79.5062 502.031 78.0906 503.287 76.9094C504.562 75.7094 506.091 75.1094 507.872 75.1094C509.653 75.1094 511.172 75.7094 512.428 76.9094C513.703 78.0906 514.341 79.5062 514.341 81.1562C514.341 82.825 513.703 84.2594 512.428 85.4594C511.172 86.6406 509.653 87.2312 507.872 87.2312ZM542.951 136.844C538.582 136.844 534.804 135.916 531.616 134.059C528.448 132.184 526.001 129.578 524.276 126.241C522.551 122.884 521.688 118.994 521.688 114.569C521.688 110.106 522.551 106.206 524.276 102.869C526.001 99.5125 528.448 96.9062 531.616 95.05C534.804 93.175 538.582 92.2375 542.951 92.2375C547.319 92.2375 551.088 93.175 554.257 95.05C557.444 96.9062 559.901 99.5125 561.626 102.869C563.351 106.206 564.213 110.106 564.213 114.569C564.213 118.994 563.351 122.884 561.626 126.241C559.901 129.578 557.444 132.184 554.257 134.059C551.088 135.916 547.319 136.844 542.951 136.844ZM543.007 127.562C544.994 127.562 546.654 127 547.985 125.875C549.316 124.731 550.319 123.175 550.994 121.206C551.688 119.237 552.035 116.997 552.035 114.484C552.035 111.972 551.688 109.731 550.994 107.762C550.319 105.794 549.316 104.237 547.985 103.094C546.654 101.95 544.994 101.378 543.007 101.378C541.001 101.378 539.313 101.95 537.944 103.094C536.594 104.237 535.573 105.794 534.879 107.762C534.204 109.731 533.866 111.972 533.866 114.484C533.866 116.997 534.204 119.237 534.879 121.206C535.573 123.175 536.594 124.731 537.944 125.875C539.313 127 541.001 127.562 543.007 127.562ZM572.004 136V92.8H583.619V100.337H584.069C584.857 97.6562 586.179 95.6312 588.035 94.2625C589.891 92.875 592.029 92.1812 594.448 92.1812C595.048 92.1812 595.694 92.2187 596.388 92.2937C597.082 92.3687 597.691 92.4719 598.216 92.6031V103.234C597.654 103.066 596.876 102.916 595.882 102.784C594.888 102.653 593.979 102.587 593.154 102.587C591.391 102.587 589.816 102.972 588.429 103.741C587.06 104.491 585.973 105.541 585.166 106.891C584.379 108.241 583.985 109.797 583.985 111.559V136H572.004ZM604.411 136V92.8H616.392V136H604.411ZM610.43 87.2312C608.648 87.2312 607.12 86.6406 605.845 85.4594C604.589 84.2594 603.961 82.825 603.961 81.1562C603.961 79.5062 604.589 78.0906 605.845 76.9094C607.12 75.7094 608.648 75.1094 610.43 75.1094C612.211 75.1094 613.73 75.7094 614.986 76.9094C616.261 78.0906 616.898 79.5062 616.898 81.1562C616.898 82.825 616.261 84.2594 614.986 85.4594C613.73 86.6406 612.211 87.2312 610.43 87.2312Z" fill="#171717"/>
</svg>
