<svg width="900" height="300" viewBox="0 0 900 300" fill="none" xmlns="http://www.w3.org/2000/svg">
<rect width="900" height="300" fill="#E5E5E5"/>
<path d="M282.989 189.277C312.096 159.173 316.111 132.705 315.107 118.846C314.104 104.986 298.045 99.9688 288.008 105.99C277.971 112.01 275.963 130.073 291.019 137.097C306.074 144.121 333.339 151.07 349.51 164.972C360.274 174.225 357.71 187.736 349.51 194.294C340.2 201.741 323.718 197.756 320.126 185.263C316.376 172.218 329.159 160.74 341.204 158.733C353.248 156.726 388.377 141.925 361.278 118.846" stroke="#FF5722" stroke-width="8.2464" stroke-linecap="round"/>
<path d="M340.995 100.058L366.622 104.656C367.594 104.83 368.018 105.988 367.389 106.749L351.11 126.451C350.481 127.213 349.264 127.014 348.909 126.092L339.562 101.792C339.201 100.853 340.005 99.8799 340.995 100.058Z" fill="#FF5722" stroke="#FF5722" stroke-width="8.2464"/>
<circle cx="281.54" cy="187.48" r="13.6368" fill="#FF5722" stroke="#FF5722" stroke-width="8.2464"/>
<path d="M433.005 144.966C432.78 142.697 431.814 140.934 430.108 139.678C428.401 138.422 426.086 137.794 423.161 137.794C421.173 137.794 419.495 138.075 418.126 138.637C416.758 139.181 415.708 139.941 414.976 140.916C414.264 141.891 413.908 142.997 413.908 144.234C413.87 145.266 414.086 146.166 414.555 146.934C415.042 147.703 415.708 148.369 416.551 148.931C417.395 149.475 418.37 149.953 419.476 150.366C420.583 150.759 421.764 151.097 423.02 151.378L428.195 152.616C430.708 153.178 433.014 153.928 435.114 154.866C437.214 155.803 439.033 156.956 440.57 158.325C442.108 159.694 443.298 161.306 444.142 163.162C445.005 165.019 445.445 167.147 445.464 169.547C445.445 173.072 444.545 176.128 442.764 178.716C441.001 181.284 438.451 183.281 435.114 184.706C431.795 186.112 427.792 186.816 423.105 186.816C418.455 186.816 414.405 186.103 410.955 184.678C407.523 183.253 404.842 181.144 402.911 178.35C400.998 175.537 399.995 172.059 399.901 167.916H411.686C411.817 169.847 412.37 171.459 413.345 172.753C414.339 174.028 415.661 174.994 417.311 175.65C418.98 176.287 420.864 176.606 422.964 176.606C425.026 176.606 426.817 176.306 428.336 175.706C429.873 175.106 431.064 174.272 431.908 173.203C432.751 172.134 433.173 170.906 433.173 169.519C433.173 168.225 432.789 167.137 432.02 166.256C431.27 165.375 430.164 164.625 428.701 164.006C427.258 163.387 425.486 162.825 423.386 162.319L417.114 160.744C412.258 159.562 408.423 157.716 405.611 155.203C402.798 152.691 401.401 149.306 401.42 145.05C401.401 141.562 402.33 138.516 404.205 135.909C406.098 133.303 408.695 131.269 411.995 129.806C415.295 128.344 419.045 127.612 423.245 127.612C427.52 127.612 431.251 128.344 434.439 129.806C437.645 131.269 440.139 133.303 441.92 135.909C443.701 138.516 444.62 141.534 444.676 144.966H433.005ZM465.412 161.025V186H453.43V128.4H465.074V150.422H465.58C466.555 147.872 468.13 145.875 470.305 144.431C472.48 142.969 475.209 142.237 478.49 142.237C481.49 142.237 484.105 142.894 486.337 144.206C488.587 145.5 490.33 147.366 491.568 149.803C492.824 152.222 493.443 155.119 493.424 158.494V186H481.443V160.631C481.462 157.969 480.787 155.897 479.418 154.416C478.068 152.934 476.174 152.194 473.737 152.194C472.105 152.194 470.662 152.541 469.405 153.234C468.168 153.928 467.193 154.941 466.48 156.272C465.787 157.584 465.43 159.169 465.412 161.025ZM502.853 186V142.8H514.834V186H502.853ZM508.872 137.231C507.091 137.231 505.562 136.641 504.287 135.459C503.031 134.259 502.403 132.825 502.403 131.156C502.403 129.506 503.031 128.091 504.287 126.909C505.562 125.709 507.091 125.109 508.872 125.109C510.653 125.109 512.172 125.709 513.428 126.909C514.703 128.091 515.341 129.506 515.341 131.156C515.341 132.825 514.703 134.259 513.428 135.459C512.172 136.641 510.653 137.231 508.872 137.231ZM543.951 186.844C539.582 186.844 535.804 185.916 532.616 184.059C529.448 182.184 527.001 179.578 525.276 176.241C523.551 172.884 522.688 168.994 522.688 164.569C522.688 160.106 523.551 156.206 525.276 152.869C527.001 149.512 529.448 146.906 532.616 145.05C535.804 143.175 539.582 142.237 543.951 142.237C548.319 142.237 552.088 143.175 555.257 145.05C558.444 146.906 560.901 149.512 562.626 152.869C564.351 156.206 565.213 160.106 565.213 164.569C565.213 168.994 564.351 172.884 562.626 176.241C560.901 179.578 558.444 182.184 555.257 184.059C552.088 185.916 548.319 186.844 543.951 186.844ZM544.007 177.562C545.994 177.562 547.654 177 548.985 175.875C550.316 174.731 551.319 173.175 551.994 171.206C552.688 169.237 553.035 166.997 553.035 164.484C553.035 161.972 552.688 159.731 551.994 157.762C551.319 155.794 550.316 154.237 548.985 153.094C547.654 151.95 545.994 151.378 544.007 151.378C542.001 151.378 540.313 151.95 538.944 153.094C537.594 154.237 536.573 155.794 535.879 157.762C535.204 159.731 534.866 161.972 534.866 164.484C534.866 166.997 535.204 169.237 535.879 171.206C536.573 173.175 537.594 174.731 538.944 175.875C540.313 177 542.001 177.562 544.007 177.562ZM573.004 186V142.8H584.619V150.337H585.069C585.857 147.656 587.179 145.631 589.035 144.262C590.891 142.875 593.029 142.181 595.448 142.181C596.048 142.181 596.694 142.219 597.388 142.294C598.082 142.369 598.691 142.472 599.216 142.603V153.234C598.654 153.066 597.876 152.916 596.882 152.784C595.888 152.653 594.979 152.587 594.154 152.587C592.391 152.587 590.816 152.972 589.429 153.741C588.06 154.491 586.973 155.541 586.166 156.891C585.379 158.241 584.985 159.797 584.985 161.559V186H573.004ZM605.411 186V142.8H617.392V186H605.411ZM611.43 137.231C609.648 137.231 608.12 136.641 606.845 135.459C605.589 134.259 604.961 132.825 604.961 131.156C604.961 129.506 605.589 128.091 606.845 126.909C608.12 125.709 609.648 125.109 611.43 125.109C613.211 125.109 614.73 125.709 615.986 126.909C617.261 128.091 617.898 129.506 617.898 131.156C617.898 132.825 617.261 134.259 615.986 135.459C614.73 136.641 613.211 137.231 611.43 137.231Z" fill="#1E1E1E"/>
</svg>
