<svg width="500" height="500" viewBox="0 0 500 500" fill="none" xmlns="http://www.w3.org/2000/svg">
<rect width="500" height="500" fill="url(#paint0_linear_17_2)"/>
<path d="M131 207.5V159C131 156.791 132.791 155 135 155H275.419C278.532 155 280.452 158.399 278.845 161.065L195.155 299.935C193.548 302.601 195.468 306 198.581 306H222.062C225.144 306 227.068 302.663 225.524 299.996L219.23 289.125C218.476 287.821 218.517 286.204 219.338 284.941L234.057 262.296C235.657 259.835 239.275 259.878 240.816 262.377L252.535 281.381C254.112 283.938 257.84 283.909 259.377 281.327L290.063 229.774C291.614 227.169 295.386 227.169 296.937 229.774L323.563 274.506C325.642 277.998 331 276.524 331 272.46V193.608C331 192.883 330.803 192.172 330.43 191.55L312.135 161.058C310.535 158.392 312.456 155 315.565 155H365C367.209 155 369 156.791 369 159V304.905C369 305.622 368.807 306.326 368.442 306.943L347.662 342.038C346.942 343.254 345.633 344 344.22 344H329.761C328.358 344 327.058 343.265 326.334 342.062L296.927 293.195C295.373 290.612 291.627 290.612 290.073 293.195L260.666 342.062C259.942 343.265 258.642 344 257.239 344H138.061C134.952 344 133.032 340.61 134.63 337.944L217.87 199.056C219.468 196.39 217.548 193 214.439 193H162.333C161.468 193 160.626 193.281 159.933 193.8L137.4 210.7C134.763 212.678 131 210.796 131 207.5Z" fill="white"/>
<defs>
<linearGradient id="paint0_linear_17_2" x1="250" y1="0" x2="250" y2="500" gradientUnits="userSpaceOnUse">
<stop stop-color="#3E3D3D"/>
<stop offset="1" stop-color="#131313"/>
</linearGradient>
</defs>
</svg>
